<svg width="224" height="39" viewBox="0 0 224 39" fill="none" xmlns="http://www.w3.org/2000/svg">
<g filter="url(#filter0_d_909_17)">
<path d="M4.59766 10.6193V4.90909H29.1857V10.6193H20.3647V34H13.4329V10.6193H4.59766ZM30.354 34V12.1818H37.1012V16.1591H37.3285C37.7262 14.7197 38.3749 13.6496 39.2745 12.9489C40.1741 12.2386 41.2205 11.8835 42.4137 11.8835C42.7357 11.8835 43.0671 11.9072 43.408 11.9545C43.7489 11.9924 44.0662 12.054 44.3597 12.1392V18.1761C44.0283 18.0625 43.5927 17.9725 43.0529 17.9062C42.5226 17.84 42.0491 17.8068 41.6325 17.8068C40.8086 17.8068 40.0652 17.9915 39.4023 18.3608C38.7489 18.7206 38.2328 19.2273 37.854 19.8807C37.4847 20.5246 37.3001 21.2822 37.3001 22.1534V34H30.354ZM52.5202 34.3693C51.1282 34.3693 49.8924 34.1373 48.8129 33.6733C47.7428 33.1998 46.8952 32.4896 46.2702 31.5426C45.6547 30.5862 45.3469 29.3883 45.3469 27.9489C45.3469 26.7367 45.56 25.714 45.9862 24.8807C46.4123 24.0473 46.9994 23.3703 47.7475 22.8494C48.4956 22.3286 49.3574 21.9356 50.3327 21.6705C51.3081 21.3958 52.3498 21.2112 53.4577 21.1165C54.6983 21.0028 55.6973 20.8845 56.4549 20.7614C57.2125 20.6288 57.7617 20.4441 58.1026 20.2074C58.453 19.9612 58.6282 19.6155 58.6282 19.1705V19.0994C58.6282 18.3703 58.3772 17.8068 57.8754 17.4091C57.3735 17.0114 56.6964 16.8125 55.8441 16.8125C54.9255 16.8125 54.1869 17.0114 53.6282 17.4091C53.0695 17.8068 52.7144 18.3561 52.5629 19.0568L46.1566 18.8295C46.346 17.5038 46.8337 16.3201 47.6197 15.2784C48.4151 14.2273 49.5041 13.4034 50.8867 12.8068C52.2788 12.2008 53.9502 11.8977 55.9009 11.8977C57.293 11.8977 58.5761 12.0634 59.7504 12.3949C60.9246 12.7169 61.9473 13.1903 62.8185 13.8153C63.6897 14.4309 64.3621 15.1884 64.8356 16.0881C65.3185 16.9877 65.56 18.0152 65.56 19.1705V34H59.0259V30.9602H58.8555C58.4672 31.6989 57.9701 32.3239 57.364 32.8352C56.7674 33.3466 56.0619 33.7301 55.2475 33.9858C54.4426 34.2415 53.5335 34.3693 52.5202 34.3693ZM54.6651 29.8239C55.4132 29.8239 56.0856 29.6723 56.6822 29.3693C57.2882 29.0663 57.7712 28.6496 58.131 28.1193C58.4909 27.5795 58.6708 26.9545 58.6708 26.2443V24.1705C58.4719 24.2746 58.2305 24.3693 57.9464 24.4545C57.6718 24.5398 57.3687 24.6203 57.0373 24.696C56.7058 24.7718 56.3649 24.8381 56.0146 24.8949C55.6642 24.9517 55.328 25.0038 55.006 25.0511C54.3526 25.1553 53.7939 25.3163 53.3299 25.5341C52.8754 25.7519 52.525 26.036 52.2788 26.3864C52.042 26.7273 51.9237 27.1345 51.9237 27.608C51.9237 28.3277 52.1793 28.8769 52.6907 29.2557C53.2115 29.6345 53.8697 29.8239 54.6651 29.8239ZM90.1907 12.1818L82.7049 34H74.7504L67.2788 12.1818H74.5941L78.614 27.2102H78.8413L82.8754 12.1818H90.1907ZM102.35 34.4119C100.068 34.4119 98.0979 33.9621 96.4407 33.0625C94.793 32.1534 93.524 30.8608 92.6339 29.1847C91.7532 27.4991 91.3129 25.4962 91.3129 23.1761C91.3129 20.9223 91.7579 18.9527 92.6481 17.267C93.5382 15.572 94.793 14.2557 96.4123 13.3182C98.0316 12.3712 99.9397 11.8977 102.137 11.8977C103.69 11.8977 105.11 12.1392 106.398 12.6222C107.686 13.1051 108.799 13.8201 109.736 14.767C110.674 15.714 111.403 16.8835 111.924 18.2756C112.444 19.6581 112.705 21.2443 112.705 23.0341V24.767H93.7418V20.733H106.242C106.232 19.9943 106.057 19.3362 105.716 18.7585C105.375 18.1809 104.907 17.7311 104.31 17.4091C103.723 17.0777 103.046 16.9119 102.279 16.9119C101.502 16.9119 100.806 17.0871 100.191 17.4375C99.5752 17.7784 99.0875 18.2472 98.7276 18.8438C98.3678 19.4309 98.1784 20.0985 98.1594 20.8466V24.9517C98.1594 25.8419 98.3346 26.6231 98.685 27.2955C99.0354 27.9583 99.5326 28.4744 100.176 28.8438C100.82 29.2131 101.587 29.3977 102.478 29.3977C103.093 29.3977 103.652 29.3125 104.154 29.142C104.656 28.9716 105.087 28.7206 105.446 28.3892C105.806 28.0578 106.076 27.6506 106.256 27.1676L112.634 27.3523C112.369 28.7822 111.786 30.0275 110.887 31.0881C109.997 32.1392 108.827 32.9583 107.378 33.5455C105.929 34.1231 104.253 34.4119 102.35 34.4119ZM123.199 4.90909V34H116.252V4.90909H123.199Z" fill="#6F6AF8"/>
<path d="M127.62 34V4.90909H147.904V10.6193H134.651V16.5852H146.867V22.3097H134.651V28.2898H147.904V34H127.62ZM158.458 34.3693C157.066 34.3693 155.83 34.1373 154.75 33.6733C153.68 33.1998 152.833 32.4896 152.208 31.5426C151.592 30.5862 151.284 29.3883 151.284 27.9489C151.284 26.7367 151.498 25.714 151.924 24.8807C152.35 24.0473 152.937 23.3703 153.685 22.8494C154.433 22.3286 155.295 21.9356 156.27 21.6705C157.246 21.3958 158.287 21.2112 159.395 21.1165C160.636 21.0028 161.635 20.8845 162.392 20.7614C163.15 20.6288 163.699 20.4441 164.04 20.2074C164.391 19.9612 164.566 19.6155 164.566 19.1705V19.0994C164.566 18.3703 164.315 17.8068 163.813 17.4091C163.311 17.0114 162.634 16.8125 161.782 16.8125C160.863 16.8125 160.124 17.0114 159.566 17.4091C159.007 17.8068 158.652 18.3561 158.5 19.0568L152.094 18.8295C152.283 17.5038 152.771 16.3201 153.557 15.2784C154.353 14.2273 155.442 13.4034 156.824 12.8068C158.216 12.2008 159.888 11.8977 161.838 11.8977C163.23 11.8977 164.514 12.0634 165.688 12.3949C166.862 12.7169 167.885 13.1903 168.756 13.8153C169.627 14.4309 170.3 15.1884 170.773 16.0881C171.256 16.9877 171.498 18.0152 171.498 19.1705V34H164.963V30.9602H164.793C164.405 31.6989 163.908 32.3239 163.301 32.8352C162.705 33.3466 161.999 33.7301 161.185 33.9858C160.38 34.2415 159.471 34.3693 158.458 34.3693ZM160.603 29.8239C161.351 29.8239 162.023 29.6723 162.62 29.3693C163.226 29.0663 163.709 28.6496 164.069 28.1193C164.428 27.5795 164.608 26.9545 164.608 26.2443V24.1705C164.409 24.2746 164.168 24.3693 163.884 24.4545C163.609 24.5398 163.306 24.6203 162.975 24.696C162.643 24.7718 162.302 24.8381 161.952 24.8949C161.602 24.9517 161.266 25.0038 160.944 25.0511C160.29 25.1553 159.731 25.3163 159.267 25.5341C158.813 25.7519 158.462 26.036 158.216 26.3864C157.98 26.7273 157.861 27.1345 157.861 27.608C157.861 28.3277 158.117 28.8769 158.628 29.2557C159.149 29.6345 159.807 29.8239 160.603 29.8239ZM194.793 18.8438L188.415 19.0142C188.349 18.5597 188.169 18.1572 187.875 17.8068C187.582 17.447 187.198 17.1676 186.725 16.9688C186.261 16.7604 185.721 16.6562 185.105 16.6562C184.301 16.6562 183.614 16.8172 183.046 17.1392C182.487 17.4612 182.212 17.8968 182.222 18.446C182.212 18.8722 182.383 19.2415 182.733 19.554C183.093 19.8665 183.732 20.1174 184.651 20.3068L188.855 21.1023C191.033 21.5189 192.653 22.2102 193.713 23.1761C194.784 24.142 195.323 25.4205 195.333 27.0114C195.323 28.5076 194.878 29.8097 193.998 30.9176C193.126 32.0256 191.933 32.8873 190.418 33.5028C188.903 34.1089 187.17 34.4119 185.219 34.4119C182.104 34.4119 179.646 33.7727 177.847 32.4943C176.057 31.2064 175.034 29.483 174.779 27.3239L181.64 27.1534C181.791 27.9489 182.184 28.5549 182.819 28.9716C183.453 29.3883 184.263 29.5966 185.248 29.5966C186.138 29.5966 186.862 29.4309 187.421 29.0994C187.98 28.768 188.264 28.3277 188.273 27.7784C188.264 27.286 188.046 26.893 187.62 26.5994C187.194 26.2964 186.526 26.0597 185.617 25.8892L181.81 25.1648C179.623 24.767 177.994 24.0331 176.924 22.9631C175.854 21.8835 175.323 20.5104 175.333 18.8438C175.323 17.3854 175.712 16.1402 176.498 15.108C177.283 14.0663 178.401 13.2708 179.85 12.7216C181.299 12.1723 183.008 11.8977 184.978 11.8977C187.932 11.8977 190.262 12.518 191.966 13.7585C193.671 14.9896 194.613 16.6847 194.793 18.8438ZM208.951 34.4119C206.669 34.4119 204.699 33.9621 203.042 33.0625C201.395 32.1534 200.126 30.8608 199.235 29.1847C198.355 27.4991 197.914 25.4962 197.914 23.1761C197.914 20.9223 198.359 18.9527 199.25 17.267C200.14 15.572 201.395 14.2557 203.014 13.3182C204.633 12.3712 206.541 11.8977 208.738 11.8977C210.291 11.8977 211.712 12.1392 213 12.6222C214.288 13.1051 215.4 13.8201 216.338 14.767C217.275 15.714 218.004 16.8835 218.525 18.2756C219.046 19.6581 219.306 21.2443 219.306 23.0341V24.767H200.343V20.733H212.843C212.834 19.9943 212.659 19.3362 212.318 18.7585C211.977 18.1809 211.508 17.7311 210.912 17.4091C210.324 17.0777 209.647 16.9119 208.88 16.9119C208.104 16.9119 207.408 17.0871 206.792 17.4375C206.177 17.7784 205.689 18.2472 205.329 18.8438C204.969 19.4309 204.78 20.0985 204.761 20.8466V24.9517C204.761 25.8419 204.936 26.6231 205.287 27.2955C205.637 27.9583 206.134 28.4744 206.778 28.8438C207.422 29.2131 208.189 29.3977 209.079 29.3977C209.695 29.3977 210.253 29.3125 210.755 29.142C211.257 28.9716 211.688 28.7206 212.048 28.3892C212.408 28.0578 212.678 27.6506 212.858 27.1676L219.235 27.3523C218.97 28.7822 218.388 30.0275 217.488 31.0881C216.598 32.1392 215.429 32.9583 213.98 33.5455C212.531 34.1231 210.855 34.4119 208.951 34.4119Z" fill="white"/>
</g>
<defs>
<filter id="filter0_d_909_17" x="0.597656" y="0.90918" width="222.709" height="37.5029" filterUnits="userSpaceOnUse" color-interpolation-filters="sRGB">
<feFlood flood-opacity="0" result="BackgroundImageFix"/>
<feColorMatrix in="SourceAlpha" type="matrix" values="0 0 0 0 0 0 0 0 0 0 0 0 0 0 0 0 0 0 127 0" result="hardAlpha"/>
<feOffset/>
<feGaussianBlur stdDeviation="2"/>
<feComposite in2="hardAlpha" operator="out"/>
<feColorMatrix type="matrix" values="0 0 0 0 0.0674479 0 0 0 0 0.0640755 0 0 0 0 0.0640755 0 0 0 0.86 0"/>
<feBlend mode="normal" in2="BackgroundImageFix" result="effect1_dropShadow_909_17"/>
<feBlend mode="normal" in="SourceGraphic" in2="effect1_dropShadow_909_17" result="shape"/>
</filter>
</defs>
</svg>
