<svg width="170" height="31" viewBox="0 0 170 31" fill="none" xmlns="http://www.w3.org/2000/svg">
<g filter="url(#filter0_d_909_17)">
<path d="M0.948242 4.46449V0.181818H19.3893V4.46449H12.7735V22H7.57466V4.46449H0.948242ZM20.2655 22V5.63636H25.3259V8.61932H25.4964C25.7947 7.53977 26.2812 6.73722 26.9559 6.21165C27.6306 5.67898 28.4154 5.41264 29.3103 5.41264C29.5518 5.41264 29.8003 5.4304 30.056 5.46591C30.3117 5.49432 30.5496 5.54048 30.7698 5.6044V10.1321C30.5212 10.0469 30.1945 9.9794 29.7897 9.92969C29.392 9.87997 29.0368 9.85511 28.7243 9.85511C28.1064 9.85511 27.5489 9.99361 27.0518 10.2706C26.5617 10.5405 26.1746 10.9205 25.8905 11.4105C25.6135 11.8935 25.4751 12.4616 25.4751 13.1151V22H20.2655ZM36.8902 22.277C35.8461 22.277 34.9193 22.103 34.1096 21.755C33.3071 21.3999 32.6714 20.8672 32.2027 20.157C31.741 19.4396 31.5102 18.5412 31.5102 17.4616C31.5102 16.5526 31.67 15.7855 31.9896 15.1605C32.3092 14.5355 32.7496 14.0277 33.3106 13.6371C33.8717 13.2464 34.518 12.9517 35.2496 12.7528C35.9811 12.5469 36.7623 12.4084 37.5933 12.3374C38.5237 12.2521 39.273 12.1634 39.8412 12.071C40.4094 11.9716 40.8213 11.8331 41.077 11.6555C41.3398 11.4709 41.4711 11.2116 41.4711 10.8778V10.8246C41.4711 10.2777 41.2829 9.85511 40.9065 9.55682C40.5301 9.25852 40.0223 9.10938 39.3831 9.10938C38.6942 9.10938 38.1402 9.25852 37.7211 9.55682C37.3021 9.85511 37.0358 10.267 36.9221 10.7926L32.1175 10.6222C32.2595 9.62784 32.6253 8.74006 33.2148 7.95881C33.8113 7.17045 34.6281 6.55256 35.665 6.10511C36.7091 5.65057 37.9626 5.4233 39.4257 5.4233C40.4697 5.4233 41.4321 5.54759 42.3128 5.79616C43.1934 6.03764 43.9605 6.39276 44.6139 6.86151C45.2673 7.32315 45.7716 7.89134 46.1267 8.56605C46.4889 9.24077 46.67 10.0114 46.67 10.8778V22H41.7694V19.7202H41.6416C41.3504 20.2741 40.9775 20.7429 40.523 21.1264C40.0756 21.5099 39.5464 21.7976 38.9356 21.9893C38.3319 22.1811 37.6501 22.277 36.8902 22.277ZM38.4988 18.8679C39.0599 18.8679 39.5642 18.7543 40.0116 18.527C40.4662 18.2997 40.8284 17.9872 41.0983 17.5895C41.3682 17.1847 41.5031 16.7159 41.5031 16.1832V14.6278C41.354 14.706 41.1729 14.777 40.9598 14.8409C40.7538 14.9048 40.5265 14.9652 40.278 15.022C40.0294 15.0788 39.7737 15.1286 39.5109 15.1712C39.2481 15.2138 38.996 15.2528 38.7545 15.2884C38.2645 15.3665 37.8454 15.4872 37.4974 15.6506C37.1565 15.8139 36.8937 16.027 36.7091 16.2898C36.5315 16.5455 36.4427 16.8509 36.4427 17.206C36.4427 17.7457 36.6345 18.1577 37.018 18.4418C37.4086 18.7259 37.9023 18.8679 38.4988 18.8679ZM65.143 5.63636L59.5287 22H53.5628L47.9591 5.63636H53.4456L56.4605 16.9077H56.6309L59.6565 5.63636H65.143ZM74.2623 22.3089C72.5507 22.3089 71.0734 21.9716 69.8305 21.2969C68.5947 20.6151 67.643 19.6456 66.9754 18.3885C66.3149 17.1243 65.9846 15.6222 65.9846 13.8821C65.9846 12.1918 66.3184 10.7145 66.9861 9.45028C67.6537 8.17898 68.5947 7.19176 69.8092 6.48864C71.0237 5.77841 72.4548 5.4233 74.1025 5.4233C75.2673 5.4233 76.3327 5.6044 77.2986 5.96662C78.2645 6.32883 79.099 6.86506 79.8021 7.57528C80.5052 8.28551 81.0521 9.16264 81.4427 10.2067C81.8334 11.2436 82.0287 12.4332 82.0287 13.7756V15.0753H67.8064V12.0497H77.1814C77.1743 11.4957 77.0429 11.0021 76.7872 10.5689C76.5315 10.1357 76.18 9.7983 75.7325 9.55682C75.2922 9.30824 74.7844 9.18395 74.2091 9.18395C73.6267 9.18395 73.1047 9.31534 72.643 9.57812C72.1814 9.83381 71.8156 10.1854 71.5457 10.6328C71.2758 11.0732 71.1338 11.5739 71.1196 12.1349V15.2138C71.1196 15.8814 71.251 16.4673 71.5138 16.9716C71.7765 17.4687 72.1494 17.8558 72.6324 18.1328C73.1153 18.4098 73.6906 18.5483 74.3582 18.5483C74.8199 18.5483 75.2389 18.4844 75.6153 18.3565C75.9917 18.2287 76.3149 18.0405 76.5848 17.7919C76.8547 17.5433 77.0571 17.2379 77.192 16.8757L81.9754 17.0142C81.7765 18.0866 81.3398 19.0206 80.665 19.8161C79.9974 20.6044 79.1203 21.2187 78.0336 21.6591C76.947 22.0923 75.6899 22.3089 74.2623 22.3089ZM89.8989 0.181818V22H84.6894V0.181818H89.8989Z" fill="#6F6AF8"/>
<path d="M93.2148 22V0.181818H108.428V4.46449H98.4882V8.93892H107.65V13.2322H98.4882V17.7173H108.428V22H93.2148ZM116.343 22.277C115.299 22.277 114.372 22.103 113.563 21.755C112.76 21.3999 112.125 20.8672 111.656 20.157C111.194 19.4396 110.963 18.5412 110.963 17.4616C110.963 16.5526 111.123 15.7855 111.443 15.1605C111.762 14.5355 112.203 14.0277 112.764 13.6371C113.325 13.2464 113.971 12.9517 114.703 12.7528C115.434 12.5469 116.215 12.4084 117.046 12.3374C117.977 12.2521 118.726 12.1634 119.294 12.071C119.862 11.9716 120.274 11.8331 120.53 11.6555C120.793 11.4709 120.924 11.2116 120.924 10.8778V10.8246C120.924 10.2777 120.736 9.85511 120.36 9.55682C119.983 9.25852 119.475 9.10938 118.836 9.10938C118.147 9.10938 117.593 9.25852 117.174 9.55682C116.755 9.85511 116.489 10.267 116.375 10.7926L111.571 10.6222C111.713 9.62784 112.078 8.74006 112.668 7.95881C113.264 7.17045 114.081 6.55256 115.118 6.10511C116.162 5.65057 117.416 5.4233 118.879 5.4233C119.923 5.4233 120.885 5.54759 121.766 5.79616C122.647 6.03764 123.414 6.39276 124.067 6.86151C124.72 7.32315 125.225 7.89134 125.58 8.56605C125.942 9.24077 126.123 10.0114 126.123 10.8778V22H121.223V19.7202H121.095C120.804 20.2741 120.431 20.7429 119.976 21.1264C119.529 21.5099 119 21.7976 118.389 21.9893C117.785 22.1811 117.103 22.277 116.343 22.277ZM117.952 18.8679C118.513 18.8679 119.017 18.7543 119.465 18.527C119.919 18.2997 120.282 17.9872 120.551 17.5895C120.821 17.1847 120.956 16.7159 120.956 16.1832V14.6278C120.807 14.706 120.626 14.777 120.413 14.8409C120.207 14.9048 119.98 14.9652 119.731 15.022C119.483 15.0788 119.227 15.1286 118.964 15.1712C118.701 15.2138 118.449 15.2528 118.208 15.2884C117.718 15.3665 117.299 15.4872 116.951 15.6506C116.61 15.8139 116.347 16.027 116.162 16.2898C115.985 16.5455 115.896 16.8509 115.896 17.206C115.896 17.7457 116.088 18.1577 116.471 18.4418C116.862 18.7259 117.355 18.8679 117.952 18.8679ZM143.595 10.6328L138.811 10.7607C138.762 10.4197 138.627 10.1179 138.407 9.85511C138.186 9.58523 137.899 9.37571 137.544 9.22656C137.196 9.07031 136.791 8.99219 136.329 8.99219C135.725 8.99219 135.21 9.11293 134.784 9.3544C134.365 9.59588 134.159 9.92259 134.166 10.3345C134.159 10.6541 134.287 10.9311 134.55 11.1655C134.82 11.3999 135.299 11.5881 135.988 11.7301L139.142 12.3267C140.775 12.6392 141.99 13.1577 142.785 13.8821C143.588 14.6065 143.992 15.5653 144 16.7585C143.992 17.8807 143.659 18.8572 142.998 19.6882C142.345 20.5192 141.45 21.1655 140.313 21.6271C139.177 22.0817 137.877 22.3089 136.414 22.3089C134.078 22.3089 132.235 21.8295 130.885 20.8707C129.543 19.9048 128.776 18.6122 128.584 16.9929L133.73 16.8651C133.843 17.4616 134.138 17.9162 134.614 18.2287C135.09 18.5412 135.697 18.6974 136.436 18.6974C137.103 18.6974 137.647 18.5732 138.066 18.3246C138.485 18.076 138.698 17.7457 138.705 17.3338C138.698 16.9645 138.534 16.6697 138.215 16.4496C137.895 16.2223 137.394 16.0447 136.713 15.9169L133.858 15.3736C132.217 15.0753 130.995 14.5249 130.193 13.7223C129.39 12.9126 128.992 11.8828 129 10.6328C128.992 9.53906 129.284 8.60511 129.873 7.83097C130.463 7.04972 131.301 6.45313 132.387 6.04119C133.474 5.62926 134.756 5.4233 136.233 5.4233C138.449 5.4233 140.196 5.88849 141.475 6.81889C142.753 7.74219 143.46 9.01349 143.595 10.6328ZM154.214 22.3089C152.502 22.3089 151.025 21.9716 149.782 21.2969C148.546 20.6151 147.594 19.6456 146.927 18.3885C146.266 17.1243 145.936 15.6222 145.936 13.8821C145.936 12.1918 146.27 10.7145 146.937 9.45028C147.605 8.17898 148.546 7.19176 149.76 6.48864C150.975 5.77841 152.406 5.4233 154.054 5.4233C155.218 5.4233 156.284 5.6044 157.25 5.96662C158.216 6.32883 159.05 6.86506 159.753 7.57528C160.456 8.28551 161.003 9.16264 161.394 10.2067C161.785 11.2436 161.98 12.4332 161.98 13.7756V15.0753H147.758V12.0497H157.133C157.125 11.4957 156.994 11.0021 156.738 10.5689C156.483 10.1357 156.131 9.7983 155.684 9.55682C155.243 9.30824 154.736 9.18395 154.16 9.18395C153.578 9.18395 153.056 9.31534 152.594 9.57812C152.133 9.83381 151.767 10.1854 151.497 10.6328C151.227 11.0732 151.085 11.5739 151.071 12.1349V15.2138C151.071 15.8814 151.202 16.4673 151.465 16.9716C151.728 17.4687 152.101 17.8558 152.584 18.1328C153.066 18.4098 153.642 18.5483 154.309 18.5483C154.771 18.5483 155.19 18.4844 155.566 18.3565C155.943 18.2287 156.266 18.0405 156.536 17.7919C156.806 17.5433 157.008 17.2379 157.143 16.8757L161.927 17.0142C161.728 18.0866 161.291 19.0206 160.616 19.8161C159.949 20.6044 159.071 21.2187 157.985 21.6591C156.898 22.0923 155.641 22.3089 154.214 22.3089Z" fill="white"/>
</g>
<defs>
<filter id="filter0_d_909_17" x="0.948242" y="0.181641" width="169.031" height="30.127" filterUnits="userSpaceOnUse" color-interpolation-filters="sRGB">
<feFlood flood-opacity="0" result="BackgroundImageFix"/>
<feColorMatrix in="SourceAlpha" type="matrix" values="0 0 0 0 0 0 0 0 0 0 0 0 0 0 0 0 0 0 127 0" result="hardAlpha"/>
<feOffset dx="4" dy="4"/>
<feGaussianBlur stdDeviation="2"/>
<feComposite in2="hardAlpha" operator="out"/>
<feColorMatrix type="matrix" values="0 0 0 0 0.0674479 0 0 0 0 0.0640755 0 0 0 0 0.0640755 0 0 0 0.86 0"/>
<feBlend mode="normal" in2="BackgroundImageFix" result="effect1_dropShadow_909_17"/>
<feBlend mode="normal" in="SourceGraphic" in2="effect1_dropShadow_909_17" result="shape"/>
</filter>
</defs>
</svg>
