<svg width="20" height="20" viewBox="0 0 20 20" fill="none" xmlns="http://www.w3.org/2000/svg">
                                                <path d="M18.5878 4.67345C17.9489 4.95369 17.2682 5.13944 16.5584 5.22963C17.2886 4.7937 17.8458 4.10867 18.1078 3.28298C17.4271 3.68885 16.6755 3.97553 15.8745 4.13552C15.2281 3.44726 14.3068 3.021 13.3018 3.021C11.352 3.021 9.78219 4.60366 9.78219 6.54386C9.78219 6.82303 9.80581 7.09146 9.86379 7.34701C6.93576 7.2042 4.34488 5.80085 2.60439 3.66308C2.30052 4.19027 2.12229 4.7937 2.12229 5.4433C2.12229 6.66305 2.75041 7.74428 3.68669 8.37026C3.12084 8.35952 2.56573 8.19524 2.09544 7.93648C2.09544 7.94721 2.09544 7.96117 2.09544 7.97513C2.09544 9.68664 3.31626 11.1082 4.91717 11.4357C4.63049 11.5141 4.31804 11.5517 3.99378 11.5517C3.7683 11.5517 3.54067 11.5388 3.327 11.4916C3.78333 12.8863 5.07823 13.9117 6.61794 13.945C5.41967 14.8824 3.89822 15.4471 2.25113 15.4471C1.9623 15.4471 1.68528 15.4342 1.40826 15.3988C2.96838 16.4049 4.81732 16.9793 6.81121 16.9793C13.2922 16.9793 16.8354 11.6107 16.8354 6.95725C16.8354 6.80156 16.8301 6.65124 16.8226 6.50199C17.5215 6.00593 18.1089 5.3864 18.5878 4.67345Z" fill="#03A9F4"></path>
                                            </svg>